<?xml version="1.0" encoding="UTF-8"?>
<svg id="Capa_2" data-name="Capa 2" xmlns="http://www.w3.org/2000/svg" xmlns:xlink="http://www.w3.org/1999/xlink" viewBox="0 0 595.9 135.91">
  <defs>
    <style>
      .cls-1 {
        fill: #124ed9;
      }

      .cls-2 {
        fill: url(#Degradado_sin_nombre_14);
      }
    </style>
    <linearGradient id="Degradado_sin_nombre_14" data-name="Degradado sin nombre 14" x1="42.66" y1="28.71" x2="145.65" y2="144.6" gradientUnits="userSpaceOnUse">
      <stop offset="0" stop-color="#128df3"/>
      <stop offset=".9" stop-color="#124ed9"/>
    </linearGradient>
  </defs>
  <g id="Capa_1-2" data-name="Capa 1">
    <g>
      <path class="cls-1" d="M400.93,56.69v44.78h-12.45v-41.86c0-8.74-4.37-14.04-14.44-14.04s-17.75,6.78-22.12,13.01v42.9h-12.45V36.03h12.06v10.6s.66,0,.66,0c4.11-7.68,12.06-11.92,23.85-11.92,16.56,0,24.91,8.48,24.91,21.99ZM250.58,65.97c-3.71-1.85-9.14-2.91-16.43-3.97-6.09-.79-9.41-1.32-11.66-2.38-2.38-1.06-3.58-3.31-3.58-5.3,0-4.77,3.84-8.74,13.78-8.74,8.08,0,15.23,2.38,19.61,4.51l3.84-10.47c-4.11-1.99-12.45-4.9-23.18-4.9-18.02,0-26.5,9.41-26.5,19.61,0,5.7,2.52,10.33,6.63,13.12,3.84,2.52,9.27,4.11,18.41,5.3,6.49.79,9.8,1.46,11.92,2.38,3.18,1.46,4.11,3.97,4.11,6.23,0,5.56-4.37,10.6-14.97,10.6s-19.87-4.11-22.79-5.3l-3.45,10.73c4.11,2.12,15.24,5.43,26.23,5.43,18.02,0,27.42-10.2,27.42-21.46,0-7.02-3.31-12.32-9.41-15.37ZM502.09,46.63h-.66v-10.73s-12.45,0-12.45,0v65.44h12.45v-42.74c3.05-7.02,9.01-11.84,18.94-11.84,2.38,0,5.03.66,6.23.93l1.46-11.66s-3.18-1.46-7.82-1.46c-6.76,0-12.98,2.15-18.15,12.05ZM298.01,82.96l-20.19-46.64-.08-.22h-13.67l27.4,63.31-2.3,5.8c-2.31,5.3-2.38,6.14-8.24,6.14l-6.66.07v11.06h7c12.19,0,15.95-3.48,20.13-14.8l28.3-71.58h-13.12l-18.59,46.86ZM476.27,90.27v11.24c-8.23,0-13.78-.89-16.82-6.86-4.94,4.77-12.01,7.06-17.4,7.84-1.41.22-2.81.34-4.19.34-15.9,0-22.65-9.8-22.65-19.87,0-7.15,3.84-13.25,9.54-16.16,5.03-2.65,14.84-3.58,32.06-3.84v-4.9c0-8.35-2.38-12.45-14.57-12.45-7.29,0-16.29,2.25-21.99,4.64l-2.91-10.07c5.83-2.78,15.9-5.43,24.9-5.43,21.07,0,27.03,9.14,27.03,23.32v24.8c0,6.34,1.02,7.28,7.02,7.41ZM456.8,72.77c-12.45.13-22.12.79-25.83,3.05-1.99,1.19-3.31,3.97-3.31,6.89,0,4.37,2.78,9.27,10.47,9.27s14.7-4.24,18.68-9.14v-10.07ZM595.9,90.27v11.24c-8.23,0-13.78-.89-16.82-6.86-4.94,4.77-12.01,7.06-17.4,7.84-1.41.22-2.81.34-4.19.34-15.9,0-22.65-9.8-22.65-19.87,0-7.15,3.84-13.25,9.54-16.16,5.03-2.65,14.84-3.58,32.06-3.84v-4.9c0-8.35-2.38-12.45-14.57-12.45-7.29,0-16.29,2.25-21.99,4.64l-2.91-10.07c5.83-2.78,15.9-5.43,24.9-5.43,21.07,0,27.03,9.14,27.03,23.32v24.8c0,6.34,1.02,7.28,7.02,7.41ZM576.43,72.77c-12.45.13-22.12.79-25.83,3.05-1.99,1.19-3.31,3.97-3.31,6.89,0,4.37,2.78,9.27,10.47,9.27s14.7-4.24,18.68-9.14v-10.07Z"/>
      <path class="cls-2" d="M142.16,52.39c-.93.93-1.45,2.19-1.45,3.5s.52,2.57,1.45,3.5l12.87,12.87-56.87,56.87c-9.04,9.04-23.7,9.04-32.74,0h0l69.74-69.74c.93-.93,1.45-2.19,1.45-3.5s-.52-2.57-1.45-3.5l-12.87-12.87L56.1,105.72c-12.9,12.9-33.81,12.9-46.71,0L0,96.34l12.83-12.83c.94-.94,1.47-2.21,1.47-3.54s-.53-2.6-1.47-3.54L0,63.6,56.81,6.78c9.04-9.04,23.7-9.04,32.74,0h0S19.83,76.51,19.83,76.51c-.92.92-1.43,2.16-1.43,3.46s.52,2.54,1.43,3.46l12.91,12.91L98.94,30.14c12.9-12.9,33.81-12.9,46.71,0l9.39,9.39-12.87,12.87Z"/>
    </g>
  </g>
</svg>